<svg xmlns="http://www.w3.org/2000/svg" xmlns:xlink="http://www.w3.org/1999/xlink" width="20" height="20" viewBox="0 0 20 20">
  <defs>
    <path id="a" d="M12.58 0a4.103 4.103 0 0 1 4.092 4.092v8.488a4.103 4.103 0 0 1-4.092 4.092H4.092A4.103 4.103 0 0 1 0 12.58V4.092A4.103 4.103 0 0 1 4.092 0h8.488zm2.37 12.387h-.009V4.286a2.564 2.564 0 0 0-2.554-2.555H4.286A2.564 2.564 0 0 0 1.73 4.286v8.1a2.564 2.564 0 0 0 2.555 2.555h8.109a2.564 2.564 0 0 0 2.555-2.554zm3.319-8.303A4.09 4.09 0 0 1 20 7.42v8.488A4.103 4.103 0 0 1 15.908 20H7.42c-1.37 0-2.596-.69-3.336-1.731h11.63a2.564 2.564 0 0 0 2.555-2.555V4.084zM6.286 8.605a.137.137 0 0 1-.135-.118V7.193a.13.13 0 0 1 .126-.126h.908V6.11c0-.168-.05-.748.454-1.21.495-.454 1.117-.487 1.294-.487h1.084a.13.13 0 0 1 .126.126V5.74a.13.13 0 0 1-.126.127h-.748c-.26 0-.395.117-.395.37v.823h1.143c.033 0 .067.017.092.042.025.025.034.067.034.1l-.151 1.312a.127.127 0 0 1-.126.109h-.992v3.546a.13.13 0 0 1-.126.126h-1.47a.13.13 0 0 1-.127-.126V8.605h-.865z"/>
  </defs>
  <use xlink:href="#a"/>
</svg>
